<svg preserveAspectRatio="none" width="100%" height="100%" overflow="visible" style="display: block;" viewBox="0 0 411 266" fill="none" xmlns="http://www.w3.org/2000/svg">
<g id="02">
<path d="M0 132.821C0 91.7694 7.87395 59.4293 23.6218 35.8008C39.6084 12.1723 65.2583 0.358003 100.572 0.358003C135.885 0.358003 161.416 12.1723 177.164 35.8008C193.15 59.4293 201.144 91.7694 201.144 132.821C201.144 174.35 193.15 206.929 177.164 230.557C161.416 254.186 135.885 266 100.572 266C65.2583 266 39.6084 254.186 23.6218 230.557C7.87395 206.929 0 174.35 0 132.821ZM141.015 132.821C141.015 108.715 138.391 90.218 133.141 77.3297C127.892 64.2028 117.036 57.6393 100.572 57.6393C84.1081 57.6393 73.2516 64.2028 68.0023 77.3297C62.753 90.218 60.1283 108.715 60.1283 132.821C60.1283 149.051 61.0828 162.536 62.9916 173.276C64.9004 183.777 68.7181 192.37 74.4446 199.052C80.4097 205.497 89.1188 208.719 100.572 208.719C112.025 208.719 120.615 205.497 126.341 199.052C132.306 192.37 136.243 183.777 138.152 173.276C140.061 162.536 141.015 149.051 141.015 132.821Z" fill="url(#paint0_linear_0_5)"/>
<path d="M231.331 218.027C239.443 211.583 243.142 208.599 242.426 209.077C265.809 189.744 284.182 173.873 297.544 161.462C311.144 149.051 322.597 136.043 331.903 122.439C341.208 108.834 345.861 95.5882 345.861 82.6999C345.861 72.9143 343.594 65.2768 339.061 59.7873C334.527 54.2979 327.727 51.5532 318.66 51.5532C309.593 51.5532 302.435 55.0139 297.186 61.9354C292.175 68.6182 289.67 78.1651 289.67 90.576H230.615C231.092 70.2889 235.387 53.3432 243.5 39.7389C251.851 26.1346 262.707 16.1104 276.069 9.66622C289.67 3.22207 304.702 0 321.165 0C349.559 0 370.914 7.27949 385.231 21.8385C399.786 36.3975 407.063 55.3719 407.063 78.7618C407.063 104.3 398.354 128.048 380.936 150.005C363.518 171.725 341.327 192.966 314.365 213.731H411V263.494H231.331V218.027Z" fill="url(#paint1_linear_0_5)"/>
</g>
<defs>
<linearGradient id="paint0_linear_0_5" x1="205.5" y1="0" x2="205.5" y2="266" gradientUnits="userSpaceOnUse">
<stop stop-color="white" stop-opacity="0.12"/>
<stop offset="1" stop-color="#0F0F0F" stop-opacity="0"/>
</linearGradient>
<linearGradient id="paint1_linear_0_5" x1="205.5" y1="0" x2="205.5" y2="266" gradientUnits="userSpaceOnUse">
<stop stop-color="white" stop-opacity="0.12"/>
<stop offset="1" stop-color="#0F0F0F" stop-opacity="0"/>
</linearGradient>
</defs>
</svg>
