<svg preserveAspectRatio="none" width="100%" height="100%" overflow="visible" style="display: block;" viewBox="0 0 408 266" fill="none" xmlns="http://www.w3.org/2000/svg">
<g id="03">
<path d="M0 131.41C0 90.9039 7.75569 58.9934 23.2671 35.6786C39.0135 12.3639 64.2782 0.706498 99.0613 0.706498C133.844 0.706498 158.992 12.3639 174.503 35.6786C190.249 58.9934 198.123 90.9039 198.123 131.41C198.123 172.388 190.249 204.534 174.503 227.849C158.992 251.163 133.844 262.821 99.0613 262.821C64.2782 262.821 39.0135 251.163 23.2671 227.849C7.75569 204.534 0 172.388 0 131.41ZM138.897 131.41C138.897 107.625 136.312 89.3732 131.142 76.656C125.971 63.7034 115.278 57.2271 99.0613 57.2271C82.8449 57.2271 72.1514 63.7034 66.981 76.656C61.8105 89.3732 59.2253 107.625 59.2253 131.41C59.2253 147.425 60.1654 160.73 62.0455 171.328C63.9257 181.69 67.686 190.168 73.3265 196.762C79.2021 203.121 87.7803 206.3 99.0613 206.3C110.342 206.3 118.803 203.121 124.444 196.762C130.319 190.168 134.197 181.69 136.077 171.328C137.957 160.73 138.897 147.425 138.897 131.41Z" fill="url(#paint0_linear_0_4)"/>
<path d="M232.087 78.7756C233.027 53.5768 241.253 34.1479 256.764 20.4887C272.275 6.82957 293.31 0 319.867 0C337.494 0 352.535 3.06153 364.991 9.1846C377.682 15.3077 387.201 23.668 393.546 34.2656C400.127 44.8632 403.417 56.7561 403.417 69.9442C403.417 85.4874 399.539 98.2045 391.784 108.096C384.028 117.751 374.98 124.345 364.639 127.878V129.291C378.035 133.765 388.611 141.184 396.366 151.546C404.122 161.908 408 175.214 408 191.463C408 206.065 404.592 219.017 397.777 230.321C391.196 241.39 381.443 250.104 368.516 256.462C355.825 262.821 340.666 266 323.04 266C294.837 266 272.275 259.053 255.354 245.158C238.667 231.263 229.854 210.304 228.914 182.279H287.434C287.669 192.641 290.607 200.884 296.248 207.007C301.888 212.894 310.114 215.838 320.925 215.838C330.091 215.838 337.141 213.247 342.077 208.066C347.247 202.65 349.832 195.585 349.832 186.871C349.832 175.567 346.189 167.442 338.904 162.497C331.853 157.316 320.455 154.725 304.708 154.725H293.427V105.623H304.708C316.694 105.623 326.33 103.621 333.616 99.6175C341.137 95.3785 344.897 87.9602 344.897 77.3626C344.897 68.8845 342.547 62.2904 337.846 57.5803C333.146 52.8703 326.683 50.5153 318.457 50.5153C309.526 50.5153 302.828 53.2236 298.363 58.6401C294.132 64.0567 291.665 70.7685 290.96 78.7756H232.087Z" fill="url(#paint1_linear_0_4)"/>
</g>
<defs>
<linearGradient id="paint0_linear_0_4" x1="204" y1="0" x2="204" y2="266" gradientUnits="userSpaceOnUse">
<stop stop-color="white" stop-opacity="0.12"/>
<stop offset="1" stop-color="#0F0F0F" stop-opacity="0"/>
</linearGradient>
<linearGradient id="paint1_linear_0_4" x1="204" y1="0" x2="204" y2="266" gradientUnits="userSpaceOnUse">
<stop stop-color="white" stop-opacity="0.12"/>
<stop offset="1" stop-color="#0F0F0F" stop-opacity="0"/>
</linearGradient>
</defs>
</svg>
