<svg preserveAspectRatio="none" width="100%" height="100%" overflow="visible" style="display: block;" viewBox="0 0 324 266" fill="none" xmlns="http://www.w3.org/2000/svg">
<g id="01">
<path d="M0 132.107C0 91.166 7.82142 58.9128 23.4643 35.3477C39.3441 11.7826 64.823 0 99.9008 0C134.979 0 160.339 11.7826 175.982 35.3477C191.862 58.9128 199.802 91.166 199.802 132.107C199.802 173.525 191.862 206.016 175.982 229.581C160.339 253.146 134.979 264.929 99.9008 264.929C64.823 264.929 39.3441 253.146 23.4643 229.581C7.82142 206.016 0 173.525 0 132.107ZM140.074 132.107C140.074 108.066 137.467 89.6188 132.253 76.7651C127.039 63.6734 116.255 57.1275 99.9008 57.1275C83.547 57.1275 72.7629 63.6734 67.5486 76.7651C62.3343 89.6188 59.7272 108.066 59.7272 132.107C59.7272 148.294 60.6752 161.742 62.5713 172.454C64.4674 182.927 68.2597 191.496 73.948 198.161C79.8733 204.588 88.5242 207.801 99.9008 207.801C111.277 207.801 119.81 204.588 125.498 198.161C131.424 191.496 135.334 182.927 137.23 172.454C139.126 161.742 140.074 148.294 140.074 132.107Z" fill="url(#paint0_linear_0_6)"/>
<path d="M225.521 62.1262V5.35572H324V266H260.718V62.1262H225.521Z" fill="url(#paint1_linear_0_6)"/>
</g>
<defs>
<linearGradient id="paint0_linear_0_6" x1="162" y1="0" x2="162" y2="266" gradientUnits="userSpaceOnUse">
<stop stop-color="white" stop-opacity="0.12"/>
<stop offset="1" stop-color="#0F0F0F" stop-opacity="0"/>
</linearGradient>
<linearGradient id="paint1_linear_0_6" x1="162" y1="0" x2="162" y2="266" gradientUnits="userSpaceOnUse">
<stop stop-color="white" stop-opacity="0.12"/>
<stop offset="1" stop-color="#0F0F0F" stop-opacity="0"/>
</linearGradient>
</defs>
</svg>
