<svg preserveAspectRatio="none" width="100%" height="100%" overflow="visible" style="display: block;" viewBox="0 0 1441 235" fill="none" xmlns="http://www.w3.org/2000/svg">
<path id="Vector" d="M663.345 42.425V107.107C663.909 107.107 664.392 107.188 664.875 107.188C673.493 107.188 682.191 107.188 690.889 107.188C697.413 107.188 703.936 106.621 710.218 104.595C719.561 101.596 726.97 96.327 730.594 86.7624C732.608 81.4938 733.011 75.982 732.608 70.3892C731.883 59.933 727.373 51.8274 717.628 47.2072C711.587 44.2892 705.225 42.7492 698.54 42.5871C687.104 42.2629 675.667 42.3439 664.312 42.2629C663.989 42.2629 663.748 42.3439 663.426 42.425H663.345ZM282.561 43.3166C270.158 41.3712 257.594 42.3439 245.191 42.2629C245.111 42.2629 244.95 42.3439 244.789 42.425V114.483C245.433 114.483 245.916 114.483 246.399 114.483C254.373 114.483 262.346 114.483 270.319 114.483C276.601 114.483 282.803 113.754 288.923 112.133C299.635 109.215 307.528 103.136 310.427 91.95C312.843 82.8717 312.843 73.7124 310.427 64.6342C308.172 55.9613 302.857 49.72 294.481 46.5588C290.615 45.0998 286.588 43.965 282.561 43.3166ZM1300.16 43.965C1300.16 43.965 1299.68 43.965 1299.35 44.1271V191.973H1313.13C1323.76 191.973 1334.31 191.162 1344.62 188.406C1363.14 183.543 1376.67 172.681 1383.76 154.525C1386.74 146.906 1388.27 139.043 1388.99 131.019C1390.2 117.483 1389.88 104.027 1386.58 90.8152C1383.19 77.2789 1376.83 65.6069 1365.4 57.1771C1355.81 50.1253 1344.78 46.9641 1333.26 45.2619C1322.31 43.6408 1311.19 44.1271 1300.16 44.0461V43.965ZM1210.52 231.041H1049.44V191.729H1158.49V134.747H1060.08V95.2733H1158.49V44.4514H1049.2V4.73408H1210.52V231.041ZM875.724 90.491H964.799V4.00458H1015.14V230.96H964.96V130.37H875.805V230.96H825.468V4.00458H875.724V90.491ZM195.982 3.92352C222.479 3.92352 248.977 3.76141 275.474 3.92352C291.017 4.00458 306.239 6.19308 320.736 12.2723C343.609 21.8368 357.945 38.5343 361.971 63.4184C364.468 78.9811 363.663 94.3816 357.542 109.134C349.891 127.533 335.797 139.124 317.514 145.852C303.903 150.877 289.648 152.742 275.232 152.823C265.89 152.904 256.547 152.823 247.124 152.823H244.789V230.96H194.372V4.00458C195.016 4.00458 195.499 4.00458 195.982 4.00458V3.92352ZM578.136 3.84247H580.552C552.766 39.507 525.222 74.8472 497.598 110.35C529.732 150.553 561.787 190.595 594.163 231.123H591.827C572.579 231.123 553.411 231.123 534.162 231.123C532.551 231.123 531.665 230.555 530.779 229.42C502.994 193.026 475.289 156.632 447.503 120.238C447.1 119.752 446.698 119.266 446.053 118.374V230.96H395.636V3.92352H445.892V102.406C446.617 101.515 447.1 101.028 447.503 100.542C472.067 68.8491 496.631 37.2374 521.115 5.54464C522.081 4.3288 522.967 3.84247 524.497 3.84247C542.377 3.84247 560.256 3.84247 578.136 3.84247ZM614.459 3.92352C642.244 3.92352 670.11 3.76141 697.896 4.00458C715.453 4.16669 732.527 7.24681 748.313 15.3524C764.904 23.7822 776.662 36.5079 781.253 54.8265C785.924 73.3882 784.636 91.5447 774.649 108.404C767.159 121.049 755.964 129.641 742.756 135.801C741.387 136.45 740.017 137.017 738.648 137.665C738.568 137.665 738.487 137.827 738.246 137.99C758.863 168.953 779.562 199.916 800.421 231.285H781.575C770.3 231.285 758.944 231.285 747.669 231.285C746.138 231.285 745.252 230.879 744.366 229.501C726.89 202.105 709.332 174.789 691.856 147.392C690.97 146.095 690.164 145.528 688.554 145.609C680.178 145.69 671.882 145.609 663.265 145.609V231.123H612.928V4.00458C613.411 4.00458 613.895 3.92352 614.378 3.92352H614.459ZM1320.54 4.3288C1342.12 4.49091 1363.06 8.05736 1382.63 17.5409C1412.83 32.212 1431.12 56.4476 1437.88 89.2751C1442.71 112.7 1442.15 136.206 1434.66 159.064C1424.19 191.162 1402.28 212.074 1370.87 223.179C1354.76 228.934 1338.01 231.366 1320.94 231.528C1297.42 231.609 1273.99 231.528 1250.47 231.528H1248.94V4.3288C1249.58 4.3288 1250.23 4.24775 1250.87 4.24775C1274.07 4.24775 1297.34 4.08564 1320.54 4.24775V4.3288ZM87.3365 0.0328521C107.149 0.357075 126.398 3.5993 145.002 10.5701C146.371 11.0564 146.935 11.6238 146.774 13.2449C145.646 25.5654 144.599 37.8858 143.552 50.2063C143.552 50.8548 143.391 51.4221 143.23 52.0706C139.042 50.5305 134.935 48.9094 130.827 47.5315C115.928 42.5871 100.625 39.9122 84.9204 40.2365C78.3162 40.3986 71.7121 40.8849 65.5107 43.2355C57.8596 46.1535 52.3024 51.0979 51.1749 59.6898C50.289 66.8227 52.7857 72.9829 57.4569 78.2516C60.5173 81.6559 64.2221 84.2497 68.249 86.4382C76.3833 90.8962 85.0815 93.8953 93.7796 96.9754C106.585 101.433 118.988 106.864 130.344 114.565C142.425 122.751 151.928 133.045 155.955 147.392C161.271 166.278 160.224 184.84 150.478 202.186C142.747 215.884 130.505 223.99 115.928 228.853C104.813 232.582 93.3769 234.203 81.6989 234.77C59.4703 235.824 37.564 233.311 16.3824 226.097C11.6307 224.476 6.95947 222.287 2.28826 220.342C1.40234 219.937 0.999651 219.451 1.08019 218.397C2.3688 204.374 3.57687 190.352 4.78494 176.329C4.78494 176.086 4.78494 175.843 4.86548 175.68C10.4226 178.598 15.6576 181.841 21.2147 184.353C39.4163 192.621 58.5844 195.863 78.4773 194.242C84.5982 193.756 90.4775 192.297 95.9541 189.46C104.572 185.002 108.599 177.383 107.793 167.737C107.149 159.145 103.041 152.742 95.9541 148.203C87.6587 142.772 78.5579 139.205 69.296 136.044C59.1482 132.559 48.9198 129.236 39.4163 124.291C28.7853 118.698 19.1207 111.971 11.8723 102.163C2.85203 90.0857 -0.369497 76.2252 0.0331937 61.2299C0.435884 47.4504 4.46279 35.0489 13.5636 24.5927C22.1006 14.785 33.0538 8.70581 45.3762 4.97725C59.0676 0.843409 73.1618 -0.210315 87.3365 0.0328521Z" fill="url(#paint0_linear_0_4)"/>
<defs>
<linearGradient id="paint0_linear_0_4" x1="720.5" y1="235" x2="720.5" y2="-2.29724e-09" gradientUnits="userSpaceOnUse">
<stop stop-color="white" stop-opacity="0.1"/>
<stop offset="1" stop-color="#0F0F0F" stop-opacity="0"/>
</linearGradient>
</defs>
</svg>
