<svg width="469" height="75" viewBox="0 0 469 75" fill="none" xmlns="http://www.w3.org/2000/svg">
<path d="M215.898 13.5399V34.1832C216.081 34.1832 216.239 34.2091 216.396 34.2091C219.201 34.2091 222.032 34.2091 224.863 34.2091C226.986 34.2091 229.109 34.028 231.154 33.3813C234.194 32.4241 236.606 30.7427 237.785 27.6901C238.441 26.0087 238.572 24.2496 238.441 22.4646C238.205 19.1276 236.737 16.5407 233.565 15.0661C231.599 14.1349 229.528 13.6434 227.353 13.5916C223.631 13.4881 219.908 13.514 216.212 13.4881C216.108 13.4881 216.029 13.514 215.924 13.5399H215.898ZM91.9647 13.8244C87.9279 13.2036 83.8387 13.514 79.802 13.4881C79.7758 13.4881 79.7234 13.514 79.6709 13.5399V36.5373C79.8806 36.5373 80.0379 36.5373 80.1952 36.5373C82.7902 36.5373 85.3853 36.5373 87.9803 36.5373C90.0249 36.5373 92.0433 36.3045 94.0354 35.7871C97.5217 34.8558 100.091 32.9156 101.034 29.3457C101.821 26.4484 101.821 23.5252 101.034 20.6279C100.3 17.86 98.5702 15.8681 95.8441 14.8592C94.5859 14.3936 93.2753 14.0314 91.9647 13.8244ZM423.161 14.0314C423.161 14.0314 423.004 14.0314 422.899 14.0831V61.2679H427.381C430.841 61.2679 434.275 61.0092 437.63 60.1296C443.659 58.5775 448.063 55.1111 450.37 49.3165C451.34 46.8848 451.838 44.3755 452.074 41.8145C452.467 37.4944 452.362 33.2002 451.287 28.9836C450.186 24.6635 448.115 20.9384 444.393 18.248C441.274 15.9974 437.683 14.9885 433.934 14.4453C430.369 13.9279 426.752 14.0831 423.161 14.0573V14.0314ZM393.986 73.7366H341.561V61.1903H377.053V43.0045H345.021V30.4064H377.053V14.1866H341.483V1.51088H393.986V73.7366ZM285.021 28.8801H314.012V1.27806H330.395V73.7108H314.064V41.6076H285.047V73.7108H268.664V1.27806H285.021V28.8801ZM63.7861 1.25219C72.41 1.25219 81.034 1.20045 89.6579 1.25219C94.717 1.27806 99.6712 1.97652 104.389 3.91668C111.834 6.9692 116.5 12.2982 117.81 20.2399C118.623 25.2067 118.361 30.1218 116.369 34.8299C113.878 40.7022 109.291 44.4014 103.341 46.5485C98.911 48.1524 94.2714 48.7474 89.5793 48.7732C86.5386 48.7991 83.498 48.7732 80.4311 48.7732H79.6709V73.7108H63.2618V1.27806C63.4715 1.27806 63.6288 1.27806 63.7861 1.27806V1.25219ZM188.165 1.22632H188.951C179.908 12.6086 170.943 23.8874 161.952 35.218C172.411 48.0489 182.844 60.8281 193.381 73.7625H192.621C186.356 73.7625 180.118 73.7625 173.853 73.7625C173.329 73.7625 173.04 73.5814 172.752 73.2193C163.709 61.6042 154.691 49.9891 145.648 38.374C145.517 38.2187 145.386 38.0635 145.176 37.779V73.7108H128.767V1.25219H145.124V32.6828C145.36 32.3983 145.517 32.243 145.648 32.0878C153.643 21.9731 161.638 11.8843 169.606 1.76956C169.921 1.38153 170.209 1.22632 170.707 1.22632C176.527 1.22632 182.346 1.22632 188.165 1.22632ZM199.987 1.25219C209.03 1.25219 218.1 1.20045 227.143 1.27806C232.857 1.32979 238.415 2.31281 243.552 4.89969C248.952 7.59005 252.779 11.6515 254.273 17.4978C255.793 23.4218 255.374 29.2164 252.124 34.5971C249.686 38.6326 246.042 41.3747 241.744 43.3408C241.298 43.5477 240.852 43.7288 240.407 43.9358C240.38 43.9358 240.354 43.9875 240.276 44.0392C246.986 53.9211 253.723 63.803 260.512 73.8143H254.378C250.708 73.8143 247.012 73.8143 243.342 73.8143C242.844 73.8143 242.556 73.6849 242.268 73.2451C236.58 64.5015 230.865 55.7837 225.177 47.04C224.889 46.6261 224.627 46.445 224.102 46.4709C221.376 46.4968 218.676 46.4709 215.872 46.4709V73.7625H199.489V1.27806C199.646 1.27806 199.803 1.25219 199.961 1.25219H199.987ZM429.793 1.38153C436.818 1.43327 443.633 2.5715 450.003 5.59815C459.832 10.2804 465.783 18.0152 467.985 28.4921C469.557 35.9682 469.374 43.4701 466.936 50.7651C463.528 61.0092 456.399 67.6833 446.176 71.2274C440.933 73.0641 435.481 73.8401 429.924 73.8919C422.27 73.9177 414.642 73.8919 406.988 73.8919H406.49V1.38153C406.7 1.38153 406.909 1.35566 407.119 1.35566C414.668 1.35566 422.244 1.30393 429.793 1.35566V1.38153ZM28.4253 0.0104847C34.8736 0.11396 41.1384 1.14871 47.1935 3.37343C47.6391 3.52864 47.8226 3.70973 47.7702 4.2271C47.4032 8.15917 47.0624 12.0912 46.7217 16.0233C46.7217 16.2302 46.6693 16.4113 46.6168 16.6183C45.2538 16.1268 43.9169 15.6094 42.5801 15.1696C37.7308 13.5916 32.7504 12.7379 27.6389 12.8414C25.4895 12.8932 23.34 13.0484 21.3217 13.7986C18.8315 14.7298 17.0228 16.3078 16.6558 19.0499C16.3675 21.3264 17.1801 23.2924 18.7004 24.9739C19.6965 26.0604 20.9023 26.8882 22.2129 27.5867C24.8604 29.0094 27.6913 29.9666 30.5223 30.9496C34.6901 32.3724 38.7268 34.1056 42.4228 36.5631C46.3547 39.1759 49.4478 42.4612 50.7584 47.04C52.4885 53.0675 52.1477 58.9914 48.976 64.5273C46.4596 68.8992 42.4752 71.4861 37.7308 73.0382C34.1134 74.2281 30.3912 74.7455 26.5904 74.9266C19.3557 75.2629 12.2259 74.461 5.33196 72.1586C3.78542 71.6413 2.26509 70.9428 0.744757 70.322C0.456418 70.1926 0.325355 70.0374 0.351567 69.7011C0.770969 65.2258 1.16416 60.7505 1.55735 56.2752C1.55735 56.1976 1.55735 56.12 1.58356 56.0682C3.39223 56.9995 5.09605 58.0343 6.90472 58.8362C12.8288 61.4748 19.0674 62.5096 25.5419 61.9922C27.534 61.837 29.4476 61.3713 31.23 60.4659C34.0348 59.0432 35.3454 56.6115 35.0833 53.5331C34.8736 50.791 33.5367 48.7474 31.23 47.2987C28.5301 45.5655 25.5681 44.4273 22.5537 43.4184C19.2509 42.306 15.9219 41.2454 12.8288 39.6674C9.3687 37.8825 6.22319 35.7353 3.86406 32.6052C0.928245 28.7508 -0.12026 24.3272 0.0108035 19.5415C0.141867 15.1437 1.4525 11.1858 4.41452 7.84874C7.19306 4.71861 10.758 2.77845 14.7685 1.58848C19.2246 0.269173 23.8119 -0.0671218 28.4253 0.0104847Z" fill="white"/>
</svg>
