<svg width="88.01" height="41.97" viewBox="559.19 92.99 88.01 41.97" fill="none" xmlns="http://www.w3.org/2000/svg">
<path d="M563.281 127.681H568.431V126.429H562.215C560.928 126.429 560.229 126.872 560.229 128.428C560.229 128.428 560.208 129.341 560.208 130.192C560.208 131.043 560.222 131.97 560.222 131.97C560.222 133.513 560.921 133.955 562.215 133.955H568.611V132.676H563.281C562.914 132.676 562.824 132.586 562.824 132.233V128.124C562.824 127.771 562.907 127.695 563.281 127.681Z" fill="white"/>
<path d="M576.3 133.948H578.916V126.422H576.286V129.376H572.14V126.422H569.51V133.948H572.14V130.586H576.3V133.948Z" fill="white"/>
<path d="M597.203 126.422L594.67 132.572C594.621 132.682 594.566 132.696 594.393 132.696C594.22 132.696 594.164 132.682 594.116 132.572L591.603 126.422H582.19C580.903 126.422 580.204 126.865 580.204 128.421C580.204 128.421 580.19 129.334 580.19 130.185C580.19 131.036 580.204 131.963 580.204 131.963C580.204 133.506 580.903 133.948 582.19 133.948H588.793V132.669H583.256C582.889 132.669 582.799 132.579 582.799 132.226V130.593H588.302V129.348H582.799V128.117C582.799 127.771 582.889 127.688 583.256 127.688H589.16C589.977 129.576 591.417 132.842 591.548 133.118C591.735 133.506 592.039 133.962 592.732 133.962H595.175C595.853 133.962 596.095 133.519 596.262 133.132C596.448 132.745 599.182 126.436 599.182 126.436L597.196 126.422H597.203Z" fill="white"/>
<path d="M619.261 128.421C619.261 126.858 618.562 126.422 617.275 126.422C617.275 126.422 615.725 126.408 614.548 126.408C613.371 126.408 611.807 126.422 611.807 126.422C610.52 126.422 609.821 126.865 609.821 128.421C609.821 128.421 609.8 129.334 609.8 130.185C609.8 131.036 609.814 131.97 609.814 131.97C609.827 133.513 610.527 133.955 611.807 133.955H617.268C618.555 133.955 619.261 133.513 619.261 131.97C619.261 131.97 619.275 131.036 619.275 130.185C619.275 129.334 619.261 128.421 619.261 128.421ZM616.209 127.667C616.576 127.667 616.659 127.757 616.659 128.103V132.247C616.659 132.599 616.576 132.689 616.209 132.689H612.859C612.492 132.689 612.409 132.599 612.409 132.247V128.103C612.409 127.757 612.499 127.681 612.866 127.667H616.209Z" fill="white"/>
<path d="M620.583 133.948H628.654V132.676H623.193V126.422H620.583V133.948Z" fill="white"/>
<path d="M630.904 126.422C629.616 126.422 628.917 126.865 628.917 128.421C628.917 128.421 628.903 129.321 628.903 130.185C628.903 131.05 628.917 131.963 628.917 131.963C628.917 133.506 629.616 133.948 630.904 133.948H637.507V132.682H631.97C631.603 132.682 631.513 132.592 631.513 132.24V130.593H636.995V129.341H631.513V128.11C631.513 127.764 631.603 127.681 631.97 127.681L640.601 127.667V133.941H643.217V127.681H646.207V126.429H630.897L630.904 126.422Z" fill="white"/>
<path d="M605.799 130.732C605.716 130.676 605.765 130.642 605.848 130.642H607.018C607.89 130.642 608.707 130.379 608.762 129.231C608.817 128.919 608.776 128.165 608.776 128.165C608.776 126.92 608.111 126.464 607.121 126.464H599.459V133.955H602.041V127.681H605.862C606.104 127.681 606.159 127.75 606.173 127.882C606.187 128.034 606.194 128.359 606.194 128.636C606.194 128.954 606.194 129.203 606.18 129.321C606.166 129.445 606.028 129.521 605.862 129.521H602.775V130.663L606.582 133.948H610.174C610.174 133.948 605.841 130.739 605.806 130.718L605.799 130.732Z" fill="white"/>
<path d="M616.984 93.993H589.125V99.9351H568.216L560.194 115.326H589.125V121.248H616.984V115.326H637.963L645.985 99.9559H616.991V94L616.984 93.993ZM569.621 111.868L574.057 103.352H592.662V97.4379H613.475V103.38H636.572L632.135 111.895H613.475V117.831H592.662V111.868H569.621Z" fill="white"/>
</svg>
