<svg width="119.66" height="36.59" viewBox="-0.36 95.91 119.66 36.59" fill="none" xmlns="http://www.w3.org/2000/svg">
<path d="M82.8496 112.186H85.7428V120.259H88.4906V112.186H91.5637V120.259H94.187V114.24H94.2423L97.7377 119.512C98.0837 120.065 98.4021 120.259 99.0735 120.259H100.88V112.186H103.967V120.259H106.666V112.186H109.643C109.746 112.871 109.802 113.569 109.802 114.282C109.802 121.829 103.732 127.944 96.2495 127.944C88.7675 127.944 82.6974 121.822 82.6974 114.282C82.6974 113.569 82.7527 112.871 82.8566 112.186H82.8496ZM58.9084 104.293L59.3029 104.708C59.5244 104.936 59.8358 105.386 59.995 105.704C60.4934 106.673 60.528 106.936 60.0504 109.122L56.382 124.091H71.4985L72.6474 119.394H63.5665L67.2625 104.286H58.9014L58.9084 104.293ZM36.1299 104.369L36.4552 104.784C36.9605 105.441 37.4657 106.458 37.4519 107.185C37.445 107.807 37.3965 107.973 37.1197 109.135L33.4513 124.105H39.5145L41.3694 116.516H48.5677L46.7128 124.105H52.769L57.621 104.307H51.5647L49.7098 111.895H42.5115L44.3664 104.307L36.1299 104.376V104.369ZM12.1402 104.293L12.6593 104.985C13.7321 106.417 13.6075 107.164 13.1299 109.128L9.46156 124.098H15.5317L18.2795 112.878L23.1591 124.098H29.8452L34.6971 104.3H28.5994L25.6024 116.551L20.2729 104.3H12.1402V104.293ZM96.2357 100.627C102.313 100.627 107.455 104.66 109.172 110.208H98.2983V115.264H98.2014L95.4605 110.955C95.1283 110.401 94.796 110.208 94.1247 110.208H83.2995C85.023 104.653 90.1656 100.627 96.2357 100.627ZM81.4999 98.5585L74.6062 129.832H2.70623L9.59999 98.5585H81.4999ZM8.26415 96.9053L0.636719 131.493H110.674L118.301 96.9053H8.26415Z" fill="#707070"/>
</svg>
