<svg width="100.87" height="34.8" viewBox="552.14 0.75 100.87 34.8" fill="none" xmlns="http://www.w3.org/2000/svg">
<path d="M591.645 30.1532C587.997 27.8151 583.048 27.4 575.068 29.6067C566.562 31.5989 563.724 32.8786 560 30.3123C558.567 29.0533 558.055 27.0265 558.436 24.1004C559.322 19.3412 561.724 14.7549 565.994 9.67057C568.375 7.0281 570.583 4.75917 573.497 3.84606C575.733 3.27192 575.525 5.02895 575.255 5.27798C574.971 5.27798 574.494 5.31948 574.12 5.56159C573.822 5.79679 572.992 6.54387 572.95 7.55382C572.888 9.09642 574.494 8.77821 575.186 7.92737C575.933 6.97276 577.034 5.13963 576.169 3.43102C575.802 2.82228 575.179 2.40032 574.397 2.26197C571.725 2.10978 569.24 3.37568 566.942 4.77992C561.924 8.25249 557.91 13.074 555.633 18.3451C554.324 21.5271 553.141 26.0788 554.913 29.7865C556.283 32.3598 559.135 33.7295 562.54 33.439C564.928 33.1899 567.814 32.4221 569.752 31.9586C571.69 31.4952 581.63 28.0918 584.89 34.0131C584.89 34.0131 585.976 31.9102 588.689 31.8687C590.918 31.6612 594.137 32.512 596.483 34.2276C595.701 33.0585 593.486 31.3361 591.645 30.1462V30.1532Z" fill="white"/>
<path d="M605.059 10.3762H602.117L600.456 13.0602H603.398L605.059 10.3762ZM647.418 5.92134C645.175 7.19415 642.85 8.01041 640.04 7.7268C639.258 8.60531 638.503 9.50458 637.804 10.4315C641.749 11.4346 645.937 9.20713 648.269 7.09039C650.74 4.9529 652.007 2.26892 652.007 2.26892C652.007 2.26892 650.159 4.37875 647.418 5.92134ZM622.701 5.24343C622.231 10.5837 618.064 13.7242 617.033 13.9733C616.41 14.0978 615.344 13.8211 616.292 11.5798C617.69 8.55689 620.085 5.99743 622.653 4.68311C622.715 4.90447 622.715 5.04974 622.695 5.24343H622.701ZM614.583 18.7117C614.285 18.0684 613.572 17.6603 612.818 17.7018C610.367 17.9231 607.966 19.9361 606.706 22.8207C606.048 24.301 605.682 25.5254 605.446 27.4761C606.208 26.6045 607.765 25.1657 609.53 24.3771C609.53 24.3771 609.772 22.5094 610.997 20.8492C611.461 20.1644 612.389 19.0507 613.427 19.3481C614.333 19.6525 614.015 22.1635 612.811 24.5916C611.918 26.3763 610.547 28.1679 609.163 29.3992C607.938 30.4368 606.125 31.6889 604.54 30.7204C603.543 30.1324 603.031 28.9011 603.141 27.3101C603.619 22.7999 605.682 18.9538 608.63 14.582C611.669 10.5145 615.026 6.3433 619.538 4.1228C620.459 3.65933 621.31 3.54865 622.051 3.83918C622.051 3.83918 617.815 6.16345 615.794 10.4592C615.282 11.5522 614.562 13.0256 615.282 14.3261C615.655 15.004 616.327 15.0593 616.867 15.0247C619.345 14.4506 620.943 12.1471 622.252 10.0372C623.013 8.4393 623.684 6.84828 623.684 5.07741C623.684 4.86297 623.67 4.57935 623.657 4.36491C624.84 3.74234 627.263 4.84913 627.263 4.84913C629.159 5.4717 633.194 8.55689 634.558 9.14488C635.222 8.37704 636.316 7.21491 636.925 6.63384L636.032 6.08736C634.606 5.22268 633.104 4.3995 631.623 3.58324C628.259 1.75011 625.518 2.39344 624.12 2.89149C623.573 3.0921 623.068 3.25812 623.068 3.25812C622.037 2.13057 620.334 2.24125 619.088 2.54562C614.589 3.83227 610.416 6.96588 605.938 12.4099C602.65 16.6711 600.608 20.3512 599.515 23.9897C598.677 26.4385 598.421 30.0356 600.47 32.1731C602.207 33.9855 604.519 33.5912 606.145 32.9409C609.675 31.2047 612.852 27.4761 614.43 23.1735C614.811 21.8938 615.233 20.0883 614.576 18.7186L614.583 18.7117ZM575.442 14.5612L574.84 15.9378C574.757 16.007 574.618 15.9724 574.466 15.9378L574.196 15.8963C573.358 15.6335 572.729 15.0801 572.535 14.4229C572.265 13.1363 573.372 12.1263 573.857 11.7597C574.321 11.4346 575.047 11.2685 575.47 11.6006C575.726 11.9049 575.829 12.2992 575.829 12.7281C575.829 13.3092 575.65 13.9594 575.449 14.5682L575.442 14.5612ZM574.168 17.1484C574.168 17.1484 574.141 17.2314 574.127 17.2521L572.777 19.4381C571.967 20.5172 570.95 21.8799 569.683 22.5302C569.309 22.6547 568.79 22.7377 568.52 22.4056C567.96 21.7347 568.25 20.8077 568.486 20.0537L568.569 19.7839C569.24 17.9646 570.313 16.3529 571.351 14.8587C571.365 14.8518 571.393 14.8379 571.407 14.8379C571.407 14.8449 571.407 14.8449 571.414 14.8656C572.064 16.1177 573.289 16.6987 574.21 16.9685C574.21 16.9685 574.224 16.9754 574.224 16.9962C574.224 17.0239 574.21 17.0585 574.175 17.1415L574.168 17.1484ZM591.008 15.7095C591.61 14.8795 593.361 12.652 593.791 12.2785C595.23 11.0195 595.805 11.5729 595.853 11.9672C594.51 14.3606 592.925 17.1069 591.437 19.5695C591.437 19.5626 590.974 20.2751 590.974 20.2751C590.316 21.2781 589.652 22.1359 588.572 22.7308C588.419 22.7792 588.164 22.793 587.997 22.6685C587.797 22.5371 587.714 22.3088 587.734 22.0805C587.797 21.3127 588.586 18.9608 591.008 15.7095ZM576.079 10.2793C574.224 9.06187 570.486 11.3861 567.496 15.3706C564.762 18.9469 563.578 23.0974 564.866 25.0204C566.776 27.2825 570.327 23.9967 571.836 22.2327L572.03 22.0252C573.054 20.9253 573.85 19.6041 574.618 18.3382C574.618 18.3382 575.324 17.176 575.359 17.1207C575.795 17.0377 576.321 16.9201 576.909 16.7472C576.902 16.7748 574.646 20.5518 574.874 22.4264C574.943 23.0005 574.888 25.0896 576.937 25.726C579.664 26.1826 581.844 24.0728 583.768 22.1981C583.768 22.1981 584.094 21.8868 584.281 21.707C584.232 21.8938 584.17 22.1428 584.17 22.1428C583.374 24.9098 584.447 25.4908 585.125 25.7053C587.16 26.2933 589.596 23.3464 589.603 23.3464C589.541 24.2734 589.354 25.0412 590.337 25.6569C591.264 25.9889 592.206 25.4839 592.919 25.0066C595.486 23.2012 597.556 20.3788 599.231 17.937H598.165C598.165 17.937 595.535 21.7208 593.832 22.544C593.832 22.544 593.521 22.7031 593.341 22.5786C593.119 22.3918 593.209 21.9975 593.341 21.7208C593.348 21.7001 599.909 10.3693 599.909 10.3693H596.815C596.815 10.3693 596.476 10.9157 596.448 10.9503C596.428 10.9296 596.379 10.8397 596.345 10.7912C594.427 8.14876 590.081 12.2162 586.814 16.9339C585.554 18.7463 583.955 20.787 582.287 22.2673C582.287 22.2673 579.823 24.5155 578.771 22.9037C578.383 22.2258 578.508 21.2297 578.723 20.5794C579.948 17.1069 582.059 13.9525 584.46 12.0502C585.139 11.5245 585.872 11.3723 586.239 11.5937C586.585 11.8012 586.641 12.3062 586.426 12.6589C585.866 12.6382 585.416 12.8111 585.056 13.1847C584.336 13.9318 584.087 14.6581 584.315 15.336C585.423 16.9063 587.637 13.8003 587.527 11.9049C587.485 11.227 587.125 10.5837 586.585 10.2724C585.776 9.7882 584.544 9.91271 583.748 10.3001C582.682 10.7013 580.986 12.1055 580.003 13.1985C578.757 14.5612 576.625 16.0831 575.961 15.9102C576.175 15.3291 577.982 11.6559 576.086 10.2863L576.079 10.2793Z" fill="white"/>
<path d="M635.887 29.5305L635.582 29.8003C635.153 30.1877 634.71 30.5958 634.17 30.3883C634.025 30.333 633.921 30.1393 633.894 29.9871C633.866 28.8872 634.364 27.8704 634.849 26.8812L634.973 26.6183C636.358 24.3148 637.97 21.5962 640.33 19.7147C640.732 19.4311 641.161 19.1889 641.618 19.3757C641.722 19.4726 641.846 19.6455 641.846 19.8115C641.846 19.8669 641.798 20.0052 641.77 20.0536C641.113 21.1189 640.483 22.2326 639.867 23.3048C638.669 25.4216 637.43 27.6075 635.88 29.5305H635.887ZM623.075 24.0934C622.985 24.1557 621.386 23.6161 621.082 22.1427C620.819 20.8768 621.698 19.8807 622.542 19.3826C622.909 19.099 623.456 19.0022 623.857 19.1405C624.231 19.3895 624.335 19.8392 624.335 20.3234C624.335 20.6209 624.293 20.9252 624.259 21.2019V21.2642C623.982 22.2534 623.588 23.208 623.075 24.0934ZM616.971 30.0909C616.804 29.8487 616.756 29.5859 616.749 29.3023C616.714 27.5522 618.611 24.4116 619.947 22.703C620.507 23.9274 621.774 24.7091 622.535 25.0411C621.587 27.1509 618.327 31.668 616.971 30.0909ZM640.026 30.4021C639.708 30.6166 639.265 30.4506 639.431 29.9594C639.846 28.7074 641.486 26.1617 641.486 26.1617L646.068 18.0614H642.933C642.781 18.3035 642.462 18.8638 642.462 18.8638C642.317 18.6217 641.881 18.0891 641.708 17.9715C640.94 17.4872 639.818 17.7155 639.043 18.1513C635.672 20.1159 633.208 24.0035 631.27 27.0333C631.27 27.0333 629.229 30.4021 628.093 30.6512C627.207 30.7204 627.297 29.5305 627.339 29.2538C627.678 27.2547 628.474 25.3524 629.277 23.623C630.903 22.4955 632.765 21.0221 634.454 19.4034C638.123 15.9101 641.21 11.9533 641.666 11.0678C641.666 11.0678 641.175 11.1647 640.6 11.1854C637.776 15.1076 632.004 20.8076 630.26 21.6585C631.035 19.7977 636.046 10.9295 640.31 6.68909L640.981 6.04577C642.019 5.03582 643.092 3.9982 643.93 3.83218C644.02 3.82527 644.13 3.83218 644.227 4.03971C644.262 4.8283 643.971 5.40936 643.632 6.06652L643.161 7.02805C643.161 7.02805 643.833 6.90353 644.269 6.75827C644.781 5.80366 645.342 4.73145 645.134 3.45172C645.065 3.04359 644.767 2.73231 644.373 2.65621C643.099 2.4141 641.715 3.35488 640.6 4.10888L640.559 4.13655C634.828 8.61215 629.983 15.0592 625.754 23.8721C625.449 24.1073 624.259 24.384 624.058 24.2456C624.473 23.3878 624.999 22.2326 625.262 20.9875C625.311 20.6278 625.352 20.2612 625.352 19.9084C625.352 19.1405 625.166 18.4142 624.473 17.9161C623.664 17.5149 622.66 17.7017 621.989 18.0061C618.964 19.2581 616.701 22.3502 615.074 24.8958C614.195 26.5145 613.323 28.2439 613.081 30.2292C612.908 31.7856 613.261 32.7818 614.147 33.2867C615.06 33.7502 616.209 33.266 616.659 33.0377C619.725 31.4328 621.864 28.2024 623.553 25.2556C623.622 25.2486 624.543 25.221 625.242 25.0411C625.249 25.0411 625.256 25.0411 625.269 25.048C625.228 25.1795 624.868 26.2517 624.868 26.2517C623.795 29.3784 623.304 31.502 624.314 32.7679C625.761 34.5457 628.149 32.7057 630.094 30.2776C629.678 33.1899 631.187 33.6464 632.343 33.4251C633.672 33.0654 635.146 31.6542 635.832 30.9348C635.61 31.7856 635.672 33.3006 636.877 33.4527C637.7 33.6049 638.323 33.1553 639.036 32.7748C641.604 31.3775 644.677 26.7359 645.48 25.3939H644.435C643.3 27.1025 641.853 29.3438 640.04 30.4091L640.026 30.4021Z" fill="white"/>
</svg>
