<svg width="102.49" height="34.56" viewBox="189.28 1.95 102.49 34.56" fill="none" xmlns="http://www.w3.org/2000/svg">
<path d="M271.175 11.3169C272.158 11.3169 272.954 12.1125 272.954 13.0947C272.954 14.077 272.158 14.8725 271.175 14.8725C270.192 14.8725 269.396 14.077 269.396 13.0947C269.396 12.1125 270.192 11.3169 271.175 11.3169ZM217.728 14.7549C211.692 11.1786 202.12 10.8258 196.361 12.5759C195.565 12.8319 195.095 13.6827 195.351 14.4851C195.607 15.2876 196.451 15.751 197.261 15.4951C202.279 13.9802 210.945 14.2707 216.198 17.3836C216.918 17.8124 217.873 17.5772 218.261 16.8371C218.69 16.1177 218.455 15.1838 217.735 14.7549H217.728ZM215.631 20.2751C210.592 17.1899 203.234 16.3321 197.316 18.1237C196.638 18.3243 196.264 19.023 196.458 19.7009C196.652 20.365 197.358 20.7316 198.036 20.5379C203.214 18.9815 209.886 19.7632 214.267 22.4471C214.869 22.793 215.651 22.6201 216.018 22.0183V22.0044C216.385 21.4026 216.212 20.6209 215.631 20.2751ZM242.797 18.5319C241.108 18.5319 239.828 19.9499 239.828 21.8246C239.828 23.6992 241.095 25.1173 242.797 25.1173C244.5 25.1173 245.711 23.7753 245.711 21.8246C245.711 19.8738 244.486 18.5319 242.797 18.5319ZM255.29 18.5526C253.512 18.5526 252.204 19.9292 252.204 21.8246C252.204 23.72 253.546 25.138 255.325 25.138C257.104 25.138 258.412 23.7615 258.426 21.8799C258.426 19.9845 257.069 18.5457 255.284 18.5457L255.29 18.5526ZM213.679 25.0481C209.394 22.4195 204.065 21.8176 197.856 23.2426C197.31 23.3602 196.977 23.9067 197.095 24.4463C197.213 24.9928 197.759 25.3248 198.299 25.2072C203.982 23.9275 208.792 24.4463 212.62 26.7844C213.104 27.0749 213.727 26.9366 214.018 26.4524C214.309 25.9681 214.156 25.3456 213.672 25.0481H213.679ZM272.4 16.2353C272.497 16.2353 272.594 16.3114 272.573 16.4289V27.2271C272.573 27.3239 272.497 27.4 272.4 27.4H269.929C269.832 27.4 269.756 27.3239 269.756 27.2271V16.4082C269.756 16.3114 269.832 16.2353 269.929 16.2353H272.4ZM265.507 13.2677C265.603 13.2677 265.68 13.3438 265.68 13.4406V16.2353H268.4C268.517 16.2353 268.593 16.3114 268.607 16.4289V18.5526C268.607 18.6495 268.531 18.7255 268.434 18.7255H265.714V23.8375C265.714 24.64 266.06 25.0066 266.863 25.0066C267.382 25.0066 267.839 24.9098 268.317 24.6607C268.372 24.6261 268.434 24.6261 268.49 24.6607C268.531 24.6953 268.566 24.7576 268.566 24.8129V26.8397C268.566 26.8951 268.531 26.9573 268.469 26.9919C267.777 27.3724 267.029 27.5661 266.15 27.5661C263.963 27.5661 262.856 26.4385 262.856 24.218V18.7048H261.665C261.568 18.7048 261.492 18.6287 261.492 18.5319V16.4082C261.492 16.3114 261.568 16.2353 261.665 16.2353H262.856V13.4406C262.856 13.3438 262.932 13.2677 263.029 13.2677H265.507ZM230.249 12.5067C232.277 12.5067 234.021 13.1016 235.578 14.3468C235.613 14.3745 235.64 14.416 235.647 14.4644C235.654 14.5128 235.647 14.5612 235.62 14.5958L234.263 16.512C234.242 16.5535 234.208 16.5881 234.145 16.5881C234.104 16.5881 234.049 16.5881 234.014 16.5465C232.713 15.5919 231.467 15.1146 230.221 15.1146C228.975 15.1146 228.075 15.7234 228.075 16.6434C228.075 17.6188 228.553 18.0961 231.335 18.7463C234.706 19.5695 236.083 20.8354 236.125 23.132C236.125 25.8505 234.035 27.6145 230.816 27.6145C228.539 27.6145 226.428 26.8121 224.705 25.2764C224.628 25.221 224.628 25.1034 224.684 25.0274L226.2 23.2288C226.22 23.1942 226.255 23.1735 226.317 23.1735C226.359 23.1735 226.414 23.1735 226.449 23.215C227.923 24.5016 229.245 25.0343 230.858 25.0343C232.311 25.0343 233.218 24.4048 233.218 23.3879C233.218 22.4886 232.761 21.9698 230.117 21.3611C226.996 20.614 225.196 19.6386 225.196 16.8786C225.196 14.3122 227.286 12.5137 230.269 12.5137L230.249 12.5067ZM255.332 16.007C258.668 16.007 261.271 18.5734 261.271 21.8246C261.271 25.0758 258.647 27.6629 255.29 27.6629C251.934 27.6629 249.373 25.1173 249.373 21.8592C249.373 18.5664 251.996 16.0001 255.332 16.0001V16.007ZM243.372 16.007C245.96 16.007 248.584 18.02 248.604 21.8246C248.604 25.6568 245.96 27.6491 243.372 27.6491C241.974 27.6491 240.825 27.1303 239.883 26.0788V30.5198C239.883 30.6167 239.807 30.6928 239.71 30.6928H237.239C237.142 30.6928 237.066 30.6167 237.066 30.5198V16.4289C237.066 16.3321 237.142 16.256 237.239 16.256H239.71C239.807 16.256 239.883 16.3321 239.883 16.4289V17.6948C240.825 16.5673 241.974 16.007 243.372 16.007ZM278.609 11.9879C279.564 11.9879 280.18 12.1194 280.678 12.2716C280.754 12.2923 280.81 12.3684 280.81 12.4445V14.5336C280.81 14.5889 280.768 14.6512 280.734 14.6857C280.678 14.7065 280.616 14.7203 280.561 14.7065C280.104 14.5543 279.682 14.4575 279.163 14.4575C278.297 14.4575 277.917 14.9002 277.917 15.9101V16.2145H282.097C282.173 16.2145 282.25 16.2491 282.27 16.3321L285.163 23.8929L287.807 16.3459C287.828 16.2906 287.904 16.2283 287.98 16.2283H290.569C290.624 16.2283 290.687 16.2491 290.721 16.3044C290.763 16.3598 290.763 16.422 290.742 16.4774L286.43 27.5799C285.53 29.8557 284.534 30.7204 282.692 30.7204C281.717 30.7204 280.927 30.5267 280.048 30.0494C279.972 30.0148 279.931 29.918 279.972 29.8212L280.817 27.9811C280.838 27.9465 280.893 27.905 280.934 27.8843C280.99 27.8843 281.052 27.8843 281.087 27.905C281.543 28.154 282.007 28.2855 282.45 28.2855C282.99 28.2855 283.392 28.1125 283.793 27.2133L280.249 18.7117H277.93V27.2133C277.93 27.3101 277.854 27.3862 277.757 27.3862H275.287C275.19 27.3862 275.113 27.3101 275.113 27.2133V18.7117H273.923C273.805 18.7117 273.729 18.6356 273.729 18.5388V16.3944C273.729 16.2975 273.826 16.2214 273.923 16.2214H275.113V15.7026C275.113 13.2538 276.318 11.9672 278.623 11.9672L278.609 11.9879ZM206.564 2.95374C215.554 2.95374 222.85 10.2447 222.85 19.2305C222.85 28.2163 215.568 35.5142 206.564 35.5142C197.559 35.5142 190.277 28.2371 190.277 19.2305C190.277 10.2447 197.552 2.95374 206.564 2.95374Z" fill="white"/>
</svg>
