<svg width="119.67" height="22.9" viewBox="-1 7.79 119.67 22.9" fill="none" xmlns="http://www.w3.org/2000/svg">
<path d="M92.7889 11.9464H89.0513V8.78516H92.7889V11.9464ZM3.33614 12.2508C3.56454 12.2508 3.73758 12.3061 3.85524 12.403C3.98675 12.4998 4.04904 12.652 4.04904 12.8457V12.8665C4.04904 13.0394 3.99367 13.1916 3.87601 13.2884C3.7445 13.3853 3.58531 13.4406 3.3569 13.4406V13.4199H2.45019V12.2439H3.33614V12.2508ZM5.4541 15.5643H6.34004V12.908L7.47516 14.6442H7.49592L8.6518 12.8941V15.5712H9.53775V11.4899H8.57567L7.49592 13.2054L6.41618 11.4899H5.4541V15.5712V15.5643ZM1.54348 15.5643H2.42943V14.3122H3.1631L4.00752 15.5643H5.0665L4.06289 14.0978C4.33282 14.0009 4.54739 13.8487 4.69966 13.6343C4.8727 13.4199 4.94883 13.1501 4.94883 12.825V12.8042C4.94883 12.4168 4.83117 12.1125 4.60276 11.8773C4.31206 11.5867 3.93138 11.4553 3.40535 11.4553H1.53656V15.5574L1.54348 15.5643ZM24.052 17.4527H27.7135C29.4646 17.4527 30.4682 16.512 30.4682 15.1423V15.1008C30.4682 13.5582 29.3885 12.7489 27.6373 12.7489H24.052V17.4527ZM111.56 15.9309C110.079 15.9309 109.13 16.9893 108.84 18.6079H114.197C113.982 17.01 113.041 15.9309 111.56 15.9309ZM53.3782 16.1038C51.724 16.1038 50.3327 17.4942 50.3327 19.5695V19.6041C50.3327 21.6862 51.717 23.0697 53.3782 23.0697C55.0393 23.0697 56.4444 21.7208 56.4444 19.6248V19.5695C56.4444 17.4873 55.0393 16.1038 53.3782 16.1038ZM1.54348 23.7476H7.68972V22.7238H1.54348V23.7476ZM16.3831 25.7883H0V9.42156H16.3831V25.7952V25.7883ZM92.7127 25.8713H89.1482V13.3368H92.7127V25.8713ZM80.0465 16.4082L84.3655 9.4769H88.2553V25.8713H84.67V15.1838L80.0673 22.1774H79.9704L75.4022 15.2461V25.8782H71.8792V9.4769H75.7344L80.0534 16.4082H80.0465ZM100.728 13.1017C103.427 13.1017 104.984 14.8725 104.984 17.764V25.892H101.42V18.8846C101.42 17.2106 100.631 16.3459 99.2604 16.3459C97.89 16.3459 97.0456 17.2106 97.0456 18.8846V25.8782H93.481V13.3438H97.0456V15.1146C97.8761 14.0563 98.9144 13.1086 100.728 13.1086V13.1017ZM27.9419 9.4769C30.0252 9.4769 31.6448 10.058 32.7177 11.1302C33.6244 12.0364 34.1227 13.3299 34.1227 14.8656V14.9417C34.1227 17.5772 32.6969 19.2582 30.6135 20.026L34.6211 25.8782H30.399L26.8898 20.6417H24.0589V25.8782H20.4529V9.4769H27.9419ZM50.395 15.1215C51.2602 13.9456 52.4576 13.0809 54.3056 13.0809C57.2334 13.0809 60.0089 15.3706 60.0089 19.5695V19.6041C60.0089 23.7822 57.2749 26.0926 54.3056 26.0926C52.3953 26.0926 51.2256 25.228 50.3743 24.2249V25.8644H46.8305V8.78516H50.395V15.1215ZM38.1372 20.3235C38.1372 21.9975 38.9262 22.8622 40.2966 22.8691C41.6671 22.8691 42.5115 22.0044 42.5115 20.3235V13.3299H46.0761V25.8644H42.5115V24.0935C41.6809 25.1519 40.6427 26.0926 38.8293 26.0926C36.1507 26.0926 34.5726 24.3218 34.5726 21.4303V13.323H38.1372V20.3235ZM111.56 13.1017C115.74 13.1017 117.671 16.3598 117.671 19.9223C117.671 20.2128 117.651 20.5379 117.63 20.87H108.902C109.248 22.4886 110.383 23.3326 111.968 23.3326C113.166 23.3326 114.031 22.966 115.014 22.039L117.055 23.8514C115.879 25.2971 114.204 26.2033 111.927 26.2033C108.148 26.1618 105.358 23.5055 105.358 19.6732V19.6317C105.358 16.0485 107.905 13.1017 111.56 13.1017ZM65.1308 21.8592L67.8648 13.3299H71.5608L66.7435 26.1756C65.7814 28.7144 64.757 29.6828 62.6183 29.6828C61.324 29.6828 60.3619 29.3577 59.4552 28.8181L60.6526 26.2379C61.1163 26.5284 61.7116 26.736 62.1753 26.736C62.7913 26.736 63.1166 26.5423 63.4073 25.9059L58.4931 13.3092H62.2722L65.1239 21.8592H65.1308Z" fill="#707070"/>
</svg>
