<svg width="146.35" height="31.52" viewBox="349.09 98.13 146.35 31.52" fill="none" xmlns="http://www.w3.org/2000/svg">
<path fill-rule="evenodd" clip-rule="evenodd" d="M364.019 113.473L361.265 115.742L364.566 113.805L364.019 113.473ZM364.767 113.514L364.151 113.161L364.843 102.342L364.774 113.514H364.767ZM365.244 113.812L365.909 113.431L374.222 119.103L365.244 113.812Z" fill="white"/>
<path fill-rule="evenodd" clip-rule="evenodd" d="M487.554 112.871L488.211 110.394H494.441L489.09 118.813H491.949C492.606 118.813 493.119 118.557 493.818 116.883H494.108L493.52 119.325H487.145L492.461 110.906H490.08C489.492 110.906 488.834 110.906 487.921 112.871H487.554ZM483.844 112.691V118.08C483.844 118.737 483.255 118.847 482.93 118.847H482.709V119.318H486.702V118.847H486.336C486.003 118.847 485.422 118.737 485.422 118.08V112.726C485.387 110.284 483.186 110.214 482.418 110.214C481.65 110.214 480.729 110.726 480.549 110.982C480.335 111.28 480.072 111.162 480.037 110.837C480.002 110.512 479.857 110.18 479.49 110.291C478.791 110.512 478.064 110.65 477.331 110.692V111.058C478.867 110.982 478.722 111.75 478.722 112.117V118.093C478.722 118.751 478.134 118.861 477.808 118.861H477.296V119.339H481.581V118.861H481.214C480.881 118.861 480.3 118.751 480.3 118.093V113.32C480.3 112.518 480.591 111.245 482.1 111.134C483.602 111.024 483.858 112.006 483.858 112.705L483.844 112.691ZM464.775 118.73H462.906V113.154H464.997C466.208 113.154 467.267 113.991 467.267 115.818C467.267 117.644 466.166 118.73 464.775 118.73ZM462.906 107.544H464.741C466.097 107.544 466.644 108.527 466.644 109.806C466.644 111.377 466.166 112.573 464.741 112.573H462.906V107.544ZM466.533 112.642C467.412 112.421 468.291 110.858 468.291 109.799C468.291 108.741 467.89 106.956 465.322 106.956H459.826V107.427C460.373 107.427 461.328 107.537 461.328 108.444V117.443C461.328 117.955 461.294 118.792 459.826 118.792V119.304H464.332C465.689 119.304 468.803 119.193 468.88 115.624C468.88 114.42 468.291 113.002 466.533 112.636V112.642ZM448.15 116.219V119.318H448.551L448.918 118.515C449.285 118.841 450.053 119.387 451.043 119.387C452.033 119.387 453.424 118.841 453.978 117.824C454.525 116.807 454.268 115.126 453.023 114.614C451.929 114.171 450.974 113.632 450.24 113.265C450.012 113.154 449.825 112.975 449.707 112.753C449.59 112.532 449.548 112.276 449.583 112.027C449.693 111.446 450.206 110.823 451.375 110.789C452.545 110.754 453.133 111.736 453.279 112.864H453.68V109.952H453.313L452.912 110.643C452.144 110.131 451.811 110.062 451.119 110.062C450.427 110.062 449.25 110.429 448.593 111.446C447.935 112.47 448.115 114.067 449.693 114.725C451.272 115.382 452.005 115.783 452.441 115.997C452.884 116.212 453.14 117.09 452.843 117.602C452.552 118.114 451.998 118.695 451.119 118.695C450.24 118.695 448.849 118.073 448.517 116.219H448.15ZM459.646 114.102V113.265H454.808V114.102H459.646ZM436.563 116.323C436.529 118.329 435.463 118.944 434.584 118.944C432.604 118.91 432.75 115.921 432.75 114.649C432.75 113.376 432.826 110.858 434.618 111.079C436.418 111.301 436.563 113.189 436.563 114.323V116.329V116.323ZM438.135 117.416V107.247C438.135 106.825 437.913 106.479 437.546 106.59C436.847 106.811 436.12 106.949 435.387 106.991V107.358C436.453 107.281 436.557 107.613 436.557 107.973V111.107C436.079 110.671 435.532 110.228 434.542 110.228C433.297 110.228 430.985 111.211 430.985 114.676C430.985 119.235 433.656 119.525 434.466 119.525C435.276 119.525 436.335 118.868 436.557 118.522C436.577 118.446 436.688 118.356 436.723 118.522C436.757 118.847 437 119.346 437.366 119.235C438.065 119.013 438.792 118.875 439.526 118.834V118.467C437.989 118.543 438.135 117.775 438.135 117.409V117.416ZM404.455 110.975C405.991 110.975 406.213 112.94 406.213 114.144H402.586C402.586 113.341 402.517 110.975 404.455 110.975ZM404.746 118.771C402.655 118.813 402.51 116.15 402.545 114.87H408.054C408.054 112.283 406.905 110.18 404.372 110.18C402.025 110.18 400.69 112.283 400.69 114.87C400.69 117.457 401.804 119.56 404.372 119.56C406.94 119.56 407.597 118.329 407.978 116.371H407.12C407.043 117.097 406.573 118.737 404.739 118.771H404.746ZM443.346 110.975C444.89 110.975 445.104 112.94 445.104 114.144H441.478C441.478 113.341 441.408 110.975 443.346 110.975ZM443.637 118.771C441.547 118.813 441.402 116.15 441.436 114.87H446.946C446.946 112.283 445.797 110.18 443.263 110.18C440.917 110.18 439.581 112.283 439.581 114.87C439.581 117.457 440.695 119.56 443.263 119.56C445.831 119.56 446.489 118.329 446.869 116.371H446.011C445.942 117.097 445.464 118.737 443.63 118.771H443.637ZM473.469 110.975C475.005 110.975 475.227 112.94 475.227 114.144H471.6C471.6 113.341 471.524 110.975 473.469 110.975ZM473.759 118.771C471.669 118.813 471.524 116.15 471.558 114.87H477.068C477.068 112.283 475.919 110.18 473.385 110.18C471.039 110.18 469.703 112.283 469.703 114.87C469.703 117.457 470.818 119.56 473.385 119.56C475.953 119.56 476.611 118.329 476.992 116.371H476.133C476.057 117.097 475.586 118.737 473.752 118.771H473.759ZM420.755 110.761C420.215 110.367 419.537 110.145 418.706 110.145C416.36 110.145 415.024 112.248 415.024 114.835C415.024 117.422 416.138 119.512 418.706 119.525C420.976 119.539 421.53 118.259 421.911 116.295H421.052C420.976 117.021 420.72 118.695 419.073 118.73C416.983 118.778 416.837 116.108 416.872 114.835C416.872 114.033 416.983 110.83 418.741 110.83C420.243 110.83 421.156 111.888 421.156 113.092H421.634V110.035H421.232L420.748 110.768L420.755 110.761ZM412.588 119.318V118.847H412.221C411.888 118.847 411.307 118.737 411.307 118.08V113.307C411.307 111.812 412.075 111.266 412.844 111.266C413.134 111.266 413.321 111.411 413.245 111.958C413.169 112.504 413.647 112.871 414.048 112.836C414.449 112.802 414.962 112.726 414.892 111.709C414.816 110.692 414.235 110.214 413.21 110.214C412.401 110.214 411.743 110.726 411.563 110.982C411.349 111.28 411.086 111.162 411.051 110.837C411.016 110.512 410.871 110.18 410.504 110.291C409.805 110.512 409.078 110.65 408.345 110.692V111.058C409.881 110.982 409.736 111.75 409.736 112.117V118.093C409.736 118.751 409.148 118.861 408.822 118.861H408.31V119.339H412.594L412.588 119.318ZM386.812 106.956L386.777 107.537H387.324C387.726 107.537 388.238 107.572 388.238 108.084L388.058 117.962C388.058 118.329 387.871 118.73 387.144 118.73H386.598L386.563 119.311H390.266V118.73H389.643C389.165 118.73 388.84 118.585 388.84 117.962L389.02 108.485L392.979 118.688H393.381L397.374 108.374L397.561 117.962C397.561 118.287 397.229 118.73 396.717 118.73H395.948V119.311H400.6V118.73H400.053C399.651 118.73 399.174 118.508 399.174 118.004L398.987 108.236C398.987 107.904 399.354 107.544 399.721 107.544H400.42V106.963H397.084L393.637 115.928L390.19 106.963H386.819L386.812 106.956ZM430.161 114.877C430.161 112.29 429.012 110.187 426.479 110.187C424.133 110.187 422.797 112.29 422.797 114.877C422.797 117.464 423.911 119.567 426.479 119.567C429.047 119.567 429.704 118.336 430.085 116.378H429.227C429.158 117.104 428.68 118.744 426.846 118.778C424.755 118.82 424.61 116.157 424.645 114.884L424.679 114.157C424.679 113.355 424.61 110.989 426.548 110.989C428.085 110.989 428.306 112.961 428.306 114.157H424.679L424.645 114.884H430.154L430.161 114.877ZM364.933 99.9282C357.181 99.9282 350.89 106.182 350.89 113.888C350.89 117.021 352.032 119.982 353.776 122.541C354.364 123.641 355.008 124.319 355.859 125.218C352.516 122.562 350.35 118.474 350.35 113.888C350.35 105.884 356.877 99.3886 364.926 99.3886C372.976 99.3886 379.628 106.161 379.392 113.888C379.192 106.355 372.554 99.9282 364.926 99.9282H364.933ZM363.646 112.843L364.843 100.599H364.961L365.079 113.48L367.148 112.248L365.072 100.599C372.395 100.675 378.306 106.597 378.306 113.895C378.306 116.24 377.697 118.439 376.624 120.355L367.342 112.636L366.463 113.134L376.561 120.473L376.485 120.604L365.134 114.109V116.399L376.409 120.736C374.07 124.61 369.813 127.197 364.94 127.197C360.068 127.197 355.818 124.61 353.478 120.743L364.747 116.378V114.088L353.382 120.584L353.305 120.452L363.362 113.134L362.483 112.636L353.229 120.314C352.136 118.349 351.568 116.143 351.568 113.895C351.568 106.652 357.389 100.765 364.629 100.606L362.815 112.352L363.646 112.85V112.843ZM364.94 127.875C361.549 127.875 358.372 126.754 356.005 124.686C353.7 122.673 351.914 119.484 351.471 116.087C352.516 122.541 358.15 127.474 364.933 127.474C372.464 127.474 378.576 121.4 378.576 113.908C378.576 110.802 377.406 107.759 375.641 105.469C377.434 106.846 378.977 110.754 378.977 113.908C378.977 121.621 372.692 127.875 364.933 127.875H364.94ZM364.933 99.1327C356.732 99.1327 350.087 105.739 350.087 113.895C350.087 122.05 356.738 128.656 364.933 128.656C373.128 128.656 379.78 122.043 379.78 113.895C379.78 105.746 373.128 99.1327 364.933 99.1327Z" fill="white"/>
</svg>
