<svg width="87.24" height="40.19" viewBox="378.96 -1 87.24 40.19" fill="none" xmlns="http://www.w3.org/2000/svg">
<path fill-rule="evenodd" clip-rule="evenodd" d="M408.87 27.6145H401.665C399.713 27.6145 398.211 28.1264 397.104 28.998C395.11 30.5752 394.474 32.2354 394.495 32.9824H397.097C395.955 33.8333 395.187 34.8571 394.785 36.04H386.258C384.721 36.04 383.732 34.9539 383.732 33.9025V27.5453H379.959V34.1446C379.959 36.5173 382.216 38.1567 385.843 38.1567H408.87V36.0192H399.727C399.769 34.9332 400.931 33.8402 401.984 33.8402H408.863V31.6543H399.616C399.492 31.0179 400.682 29.7589 401.596 29.7589H408.863V27.6214L408.87 27.6145ZM408.87 33.8333V31.6474H410.767V33.8333H408.87ZM459.826 33.861C460.435 33.944 460.899 34.4213 460.899 34.9885C460.899 35.6249 460.324 36.1368 459.618 36.1368H446.599V27.6283H442.765V36.1576H435.712C433.801 36.1576 433.414 34.9954 433.414 33.9301V27.573H427.053C426.423 28.0019 425.814 28.4653 425.163 28.8596L421.391 31.1839L416.491 27.6076H408.863V29.7451H411.625V28.5691L418.11 33.2246L413.681 36.0054H408.863V38.1429H414.435C415.03 37.7417 415.598 37.3128 416.214 36.9392L420.09 34.5873L425.011 38.1014H430.618L423.212 32.5328L427.018 30.0494C427.828 29.5168 428.68 29.0672 429.51 28.5829V34.1861C429.51 36.5519 430.119 38.1913 434.881 38.1913L461.785 38.129C463.861 38.1567 465.197 36.7248 465.197 34.9885C465.197 33.2522 463.66 31.848 461.785 31.848H452.067C452.199 30.6651 453.216 29.6759 454.247 29.6759H464.083L464.055 27.6214H453.624C450.323 27.6214 447.679 30.3607 447.603 33.5428C447.596 33.7641 447.741 33.9025 447.983 33.9025L459.819 33.861H459.826ZM423.392 1.95072C421.654 4.08822 416.698 10.9988 416.138 11.898C415.051 13.6136 414.954 14.4437 414.92 14.9971C414.885 15.5435 414.885 16.5189 415.771 17.3213C417.252 18.6426 419.329 18.4281 421.17 18.4281H436.355C437.006 18.4281 437.2 18.2344 437.546 17.771C438.757 15.9171 439.304 13.9041 439.304 12.1056C439.304 8.25253 436.798 3.39647 430.458 1.20364L429.745 2.22742C434.777 4.61395 436.854 7.73372 436.854 12.0986C436.888 13.2677 436.577 14.5405 435.809 15.7096H421.038C420.152 15.7096 420.028 14.7065 420.346 14.1462C421.613 11.8911 423.025 9.72595 424.575 7.65763C426.07 5.6654 427.537 3.8046 429.081 1.85388C429.496 1.3074 429.219 0.78859 428.389 0.615654C426.665 0.255946 424.866 0 422.679 0C410.566 0 406.129 6.95205 406.129 12.1056C406.129 17.6949 410.594 24.1834 422.706 24.1834C429.427 24.1834 433.829 22.0252 436.376 19.2444H433.808C431.58 21.2989 427.759 22.7584 422.706 22.7584C412.449 22.7584 408.663 16.9962 408.663 12.0364C408.739 7.60921 412.795 1.49417 422.962 1.29357C423.343 1.27973 423.648 1.63252 423.378 1.96456L423.392 1.95072Z" fill="white"/>
</svg>
