<svg width="119.64" height="26.15" viewBox="181.11 101.19 119.64 26.15" fill="none" xmlns="http://www.w3.org/2000/svg">
<path d="M198.348 107.904C199.4 107.863 200.459 108.257 200.902 109.315C201.082 109.889 201.034 110.678 200.729 111.204C200.286 111.819 199.629 112.304 198.881 112.345C198.044 112.477 197.254 112.082 196.901 111.287C196.638 110.63 196.459 109.661 196.86 108.956C197.123 108.388 197.781 108.077 198.355 107.897L198.348 107.904ZM234.734 114.939C233.149 115.071 231.433 115.071 229.938 115.382C231.523 116.343 232.353 118.066 233.018 119.512C233.634 118.017 234.25 116.433 234.734 114.939ZM243.974 116.876C242.659 117.886 241.642 119.214 241.337 120.708C241.206 121.497 241.337 122.244 241.863 122.818C242.216 123.212 242.742 123.344 243.317 123.302C245.428 122.908 246.66 120.577 247.013 118.681L246.134 118.64C245.165 118.73 244.286 117.63 243.974 116.876ZM270.11 117.886C268.698 119.38 267.334 121.054 267.999 123.164C268.22 123.78 268.836 124.222 269.494 124.174C271.605 123.87 272.574 121.49 273.01 119.774C272.435 119.864 271.951 119.685 271.473 119.512C270.809 119.207 270.373 118.46 270.11 117.886ZM298.342 124.783H298.522C298.674 124.783 298.847 124.776 298.847 124.589C298.847 124.402 298.674 124.395 298.522 124.395H298.342V124.783ZM298.612 124.188C298.944 124.188 299.097 124.34 299.097 124.603C299.097 124.845 298.958 124.956 298.764 124.976L299.124 125.557H298.854L298.515 124.997H298.335V125.557H298.079V124.181H298.605L298.612 124.188ZM196.195 113.141C196.77 113.929 198.175 114.593 197.912 115.693C196.68 118.066 195.448 120.397 194.611 122.901C196.016 122.202 197.338 120.84 198.57 119.643C200.508 117.665 202.307 115.645 204.024 113.576C204.903 113.798 205.699 114.586 206.225 115.202C205.256 117.18 204.155 119.159 203.276 121.179L210.184 114.407C210.973 114.891 212.205 115.638 212.253 116.606C211.111 118.19 210.232 119.906 209.526 121.621L216.392 115.506C217.271 115.416 217.977 116.516 218.552 117.222C217.32 119.373 215.472 121.31 215.603 123.953C215.825 124.52 216.441 124.52 216.835 124.478C216.524 125.094 215.908 125.62 215.25 125.751C214.413 125.973 213.714 125.62 213.049 125.225C211.333 122.984 213.624 120.784 214.544 118.806C212.08 120.39 209.921 122.936 207.941 125.052C207.062 124.658 206.356 123.911 205.609 123.378L205.65 122.673C206.571 121.137 207.408 119.553 208.377 118.052L208.114 118.094C205.872 120.155 203.539 122.313 201.65 124.734C200.681 124.907 199.975 124.119 199.234 123.676L199.103 123.413C199.85 121.608 200.819 119.892 201.525 118.135C199.061 120.425 196.728 123.06 193.96 124.603C192.901 124.734 192.375 123.593 191.586 123.019L191.413 122.666C192.603 119.366 193.745 115.984 195.815 113.078L196.209 113.12L196.195 113.141ZM206.882 103.332C207.325 103.947 207.277 104.743 207.498 105.441L207.145 105.753C201.913 105.884 197.248 106.147 192.008 106.541C192.271 107.551 193.683 108.298 193.282 109.578C190.728 114.808 188.617 120.266 186.374 125.675C186.021 125.979 185.536 125.806 185.232 125.537C184.574 124.79 182.948 124.305 183.474 123.074C185.806 117.575 188.139 112.124 190.956 106.846C188.007 106.936 185.232 107.33 182.242 107.544L182.11 107.461L183.169 105.082C190.914 103.94 198.743 103.235 206.882 103.325V103.332ZM298.55 123.897C298.003 123.897 297.56 124.34 297.56 124.886C297.56 125.433 298.003 125.876 298.55 125.876C299.097 125.876 299.54 125.433 299.54 124.886C299.54 124.34 299.097 123.897 298.55 123.897ZM298.55 123.683C299.214 123.683 299.754 124.222 299.754 124.886C299.754 125.551 299.214 126.09 298.55 126.09C297.885 126.09 297.345 125.551 297.345 124.886C297.345 124.222 297.885 123.683 298.55 123.683ZM230.644 102.453C230.907 102.19 231.26 102.19 231.523 102.453C232.139 103.069 233.059 103.463 233.371 104.342L229.238 113.888C231.218 113.978 233.329 113.756 235.399 113.666C236.935 110.367 238.299 106.984 240.147 103.774C241.067 103.076 241.732 104.48 242.438 104.916L242.569 105.269C241.206 107.994 239.842 110.719 238.652 113.535C241.995 113.929 247.013 112.304 248.639 115.956C248.771 116.219 248.598 116.572 248.771 116.793C251.062 115.562 252.861 113.231 254.225 111.211C255.194 111.473 254.398 112.352 254.709 113.099C254.751 113.625 255.194 114.109 255.63 114.33C256.024 114.462 256.64 114.24 256.772 114.725C255.983 116.71 254.661 118.467 253.865 120.397C253.47 121.365 252.764 122.375 253.207 123.475C253.56 123.96 254.218 123.78 254.661 123.607C258.488 120.75 259.589 116.35 261.61 112.525C261.652 112.442 261.52 112.394 261.52 112.352L258.925 112.483C258.745 111.999 259.229 111.605 259.582 111.301L262.219 111.038C263.098 109.412 263.714 107.697 264.725 106.071C265.652 106.382 266.573 107.392 266.836 108.312C266.614 109.191 265.957 109.938 265.777 110.733C268.725 110.643 271.805 110.291 274.885 110.422C275.19 110.865 275.238 111.39 275.328 111.875C271.812 112.006 268.462 112.096 264.988 112.228C263.23 115.748 261.555 119.352 260.191 123.046C260.101 123.489 260.191 124.015 260.717 124.146C262.344 124.015 263.666 122.694 264.676 121.372C265.645 118.598 267.272 114.994 270.615 114.247C271.978 114.026 273.162 114.51 274.089 115.479C274.795 116.316 275.19 117.236 275.1 118.384C277.031 117.81 278.575 116.274 280.16 114.863C281.087 115.043 281.572 116.094 282.139 116.71L281.966 117.499C281.17 118.778 280.513 120.183 279.897 121.545C282.139 119.657 284.562 117.367 286.763 115.389C287.6 115.693 288.258 116.662 288.258 117.499C287.116 119.346 286.188 121.282 285.794 123.441C285.794 123.966 285.621 124.541 286.147 124.893L286.68 124.762C289.67 121.11 291.691 116.98 295.304 113.68C295.92 114.476 296.709 115.527 296.536 116.586C294.023 119.442 298.778 122.389 295.65 125.073C294.549 126.173 292.874 126.173 291.469 125.73C290.943 125.509 290.327 125.295 290.016 124.762C290.279 124.056 290.59 123.268 291.206 122.784C291.338 123.621 291.386 124.631 292.307 125.066C292.874 125.288 293.497 124.976 293.76 124.451C294.459 122.562 292.438 121.462 292.833 119.484C292.923 118.647 293.276 117.81 293.449 117.063C291.075 119.657 289.448 122.562 287.469 125.329C286.811 125.993 285.925 126.208 285.046 126.076C284.299 125.986 283.641 125.551 283.33 124.886C282.672 123.039 283.108 120.798 284.209 119.166L283.856 119.256C281.786 121.234 279.675 123.302 277.785 125.322C276.906 125.191 276.2 124.312 275.674 123.607C276.422 121.497 277.522 119.56 278.664 117.63C277.481 118.246 276.2 118.903 274.878 119.387C274.131 122.161 272.061 125.322 269.03 126.028C267.846 126.339 266.344 126.028 265.465 124.928C264.939 124.361 264.808 123.607 264.496 122.95C262.821 124.575 260.759 126.076 258.426 125.149C257.416 124.534 257.326 123.344 257.416 122.292C256.094 124.098 254.246 125.322 252.003 125.191C251.166 125.101 250.245 124.838 249.892 123.96C249.318 120.75 251.519 118.156 253.235 115.645C253.104 115.292 253.014 114.939 252.841 114.635C251.477 115.818 250.155 117.27 248.57 118.017C248.134 121.186 246.064 124.921 242.631 125.675C241.441 125.717 240.389 125.495 239.503 124.79C238.098 123.6 237.835 121.628 238.312 119.864C238.887 117.886 240.34 116.039 242.099 114.759L241.967 114.628L238.049 114.711C236.374 118.273 234.706 121.836 233.426 125.53C233.294 125.841 232.941 125.841 232.727 125.751C230.436 125.135 232.242 122.846 231.536 121.352C231.183 119.373 230.214 117.395 228.283 116.336L228.11 116.426C226.788 119.463 225.515 122.583 224.11 125.53H223.757C222.919 124.741 221.203 123.904 221.819 122.493L224.857 115.548C224.463 115.285 223.404 115.589 223.584 114.711C224.11 114.012 225.342 114.621 225.653 113.791L230.623 102.446L230.644 102.453Z" fill="white"/>
</svg>
